/* XPM */
static char *b2c11f20d647429ac234bff22a378e00[] = {
/* columns rows colors chars-per-pixel */
"64 64 256 2 ",
"   c black",
".  c #0000A8",
"X  c #00A800",
"o  c #00A8A8",
"O  c #A80000",
"+  c #A800A8",
"@  c #A85400",
"#  c #4C4436",
"$  c gray33",
"%  c #5454FC",
"&  c #524A42",
"*  c #5E5246",
"=  c #736352",
"-  c #685D4C",
";  c #FCFC54",
":  c gray99",
">  c #ECECEC",
",  c gainsboro",
"<  c #D0D0D0",
"1  c #C0C0C0",
"2  c #B4B4B4",
"3  c gray66",
"4  c #989898",
"5  c gray55",
"6  c #7C7C7C",
"7  c gray44",
"8  c #646464",
"9  c gray33",
"0  c #484848",
"q  c gray22",
"w  c #2C2C2C",
"e  c #202020",
"r  c #FC0000",
"t  c #EC0000",
"y  c #E00000",
"u  c #D40000",
"i  c #C80000",
"p  c #BC0000",
"a  c #B00000",
"s  c #A40000",
"d  c #980000",
"f  c #880000",
"g  c #7C0000",
"h  c #700000",
"j  c #640000",
"k  c #580000",
"l  c #4C0000",
"z  c #400000",
"x  c #FCD8D8",
"c  c #FCB8B8",
"v  c #FC9C9C",
"b  c #FC7C7C",
"n  c #FC5C5C",
"m  c #FC4040",
"M  c #FC2020",
"N  c #FC0000",
"B  c #FCA85C",
"V  c #FC9840",
"C  c #FC8820",
"Z  c #FC7800",
"A  c #E46C00",
"S  c #CC6000",
"D  c #B45400",
"F  c #9C4C00",
"G  c #FCFCD8",
"H  c #FCFCB8",
"J  c #FCFC9C",
"K  c #FCFC7C",
"L  c #FCF85C",
"P  c #FCF440",
"I  c #FCF420",
"U  c #FCF400",
"Y  c #E4D800",
"T  c #CCC400",
"R  c #B4AC00",
"E  c #9C9C00",
"W  c #848400",
"Q  c #706C00",
"!  c #585400",
"~  c #404000",
"^  c #849C7B",
"/  c #738C6B",
"(  c #6B7B63",
")  c #637352",
"_  c #5A6B52",
"`  c #525A4A",
"'  c #4A5242",
"]  c #425239",
"[  c #394A39",
"{  c #313931",
"}  c #313929",
"|  c #293129",
" . c #293121",
".. c #212921",
"X. c #182118",
"o. c #181818",
"O. c #00FC00",
"+. c #00EC00",
"@. c #00E000",
"#. c #00D400",
"$. c #04C800",
"%. c #04BC00",
"&. c #04B000",
"*. c #04A400",
"=. c #049800",
"-. c #048800",
";. c #047C00",
":. c #047000",
">. c #046400",
",. c #045800",
"<. c #044C00",
"1. c #044000",
"2. c #C8BFB2",
"3. c #A89A85",
"4. c #9A8C77",
"5. c #7CFCF8",
"6. c #5CFCFC",
"7. c #40FCFC",
"8. c #20FCFC",
"9. c #00FCFC",
"0. c #00E4E4",
"q. c #00CCCC",
"w. c #00B4B4",
"e. c #009C9C",
"r. c #008484",
"t. c #007070",
"y. c #005858",
"u. c #004040",
"i. c #94846B",
"p. c #8C7B67",
"a. c #847B63",
"s. c #81735D",
"d. c #7B6B5A",
"f. c #007CCC",
"g. c #006CB4",
"h. c #005C9C",
"j. c #736B5A",
"k. c #736B52",
"l. c #9C9CFC",
"z. c #7C80FC",
"x. c #5C60FC",
"c. c #4040FC",
"v. c #2024FC",
"b. c #0004FC",
"n. c #0000FC",
"m. c #0000EC",
"M. c #0000E0",
"N. c #0000D4",
"B. c #0000C8",
"V. c #0000BC",
"C. c #0000B0",
"Z. c #0000A4",
"A. c #000098",
"S. c #000088",
"D. c #00007C",
"F. c #000070",
"G. c #000064",
"H. c #000058",
"J. c #00004C",
"K. c #000040",
"L. c #282828",
"P. c #FCE034",
"I. c #FCD424",
"U. c #FCCC18",
"Y. c #FCC008",
"T. c #FCB400",
"R. c #B420FC",
"E. c #A800FC",
"W. c #9800E4",
"Q. c #8000CC",
"!. c #7400B4",
"~. c #60009C",
"^. c #500084",
"/. c #440070",
"(. c #340058",
"). c #280040",
"_. c #FCD8FC",
"`. c #FCB8FC",
"'. c #FC9CFC",
"]. c #FC7CFC",
"[. c #FC5CFC",
"{. c #FC40FC",
"}. c #FC20FC",
"|. c #FC00FC",
" X c #E000E4",
".X c #C800CC",
"XX c #B400B4",
"oX c #9C009C",
"OX c #840084",
"+X c #6C0070",
"@X c #580058",
"#X c #400040",
"$X c #FCE8DC",
"%X c #FCE0D0",
"&X c #FCD8C4",
"*X c #FCD4BC",
"=X c #FCCCB0",
"-X c #FCC4A4",
";X c #FCBC9C",
":X c #FCB890",
">X c #FCB080",
",X c #FCA470",
"<X c #FC9C60",
"1X c #F0945C",
"2X c #E88C58",
"3X c #DC8854",
"4X c #D08050",
"5X c #C87C4C",
"6X c #BC7848",
"7X c #B47044",
"8X c #A86840",
"9X c #A0643C",
"0X c #9C6038",
"qX c #905C34",
"wX c #885830",
"eX c #80502C",
"rX c #744C28",
"tX c #6C4824",
"yX c #5C4020",
"uX c #543C1C",
"iX c #483818",
"pX c #403018",
"aX c #382C14",
"sX c #28200C",
"dX c #600064",
"fX c #006464",
"gX c #006060",
"hX c #00001C",
"jX c #00002C",
"kX c #302410",
"lX c #480048",
"zX c #500050",
"xX c #000034",
"cX c gray11",
"vX c #4C4C4C",
"bX c gray36",
"nX c gray25",
"mX c gray19",
"MX c #343434",
"NX c #2E2B22",
"BX c #B8E8E8",
"VX c #9CDCDC",
"CX c #74C8C8",
"ZX c #48C0C0",
"AX c #20B4B4",
"SX c #20B0B0",
"DX c #00A4A4",
"FX c #009898",
"GX c #008C8C",
"HX c #008484",
"JX c #007C7C",
"KX c #007878",
"LX c #007474",
"PX c #007070",
"IX c #006C6C",
"UX c #980088",
/* pixels */
"S S S A Z Z C Z C Z A A A S A Z A A A S S i i S A A Z A Z A S A Z S S S S S S S S S S S i S S A A S S S i S S S S A C C S a S S ",
"S A S Z Z V C C C A S A S S A A S A A S S S a S A A A A A A S Z S S S S S i S S S S S S S A A Z A A A S S A S S S A Z C A i S S ",
"S S A S A Z Z Z Z S S S S S A S S S S S S S i S A S A A S S S S i i p i i a a a a a i a S S Z A A A Z S A A A S S S A A S S S S ",
"S A A A S A S A S S S i S S S S S S S A S S S S S A A A S S S i a i a i S i s a s a S i S A A A A A A A Z Z Z A S S A S S S S S ",
"i S S S S S A A i S i a i i S S S S A S S S S S A S A A S S S S S S i S S i a d a a i S A A Z S A A Z A Z A A S S S i a i i S S ",
"a S A S S S S S s i i i S S S S S Z A S S A A A A A A A S S S A A A S A S i p s i A S A A Z S S A Z C C A A S S S S S i S S S S ",
"S S S S S S S i s i S S A S A A A A S i i S A S S S A A S S S S Z A A S i a i i S S A A Z A S A A A Z C A S A S S S i a i S A S ",
"S S S S S S S S i S S S S A Z Z Z Z S i a S S S S A A A S S S A Z A A A S S S S S S S Z Z Z Z C C Z A A S A A Z A S a i A A Z Z ",
"S S S A A S A A S S S S S S A Z A S S S i S A S S S Z A S S A S A S A S S S S S S S A A A A C Z A A S S S S A S S S S S A A A S ",
"S S S A Z A S A S S S S A A Z Z A A A S S A A S S i S Z A A A A A A A A S S A S S S S A S S S A A A S S S S S A A Z A A Z A A A ",
"A A S A C A S S Z S S A A S A A A Z A S S S A S i a S S A A Z S A Z C Z S S S S S S S S i i S A S S A S S S S A A Z A Z C A Z A ",
"Z Z S A C Z A A S S S Z A A A A A A A A A A S S S i S A A Z Z A A Z A A A A S A A S S S S S S S S S S S S S S A A Z A C Z A A A ",
"C A A A Z A A S S S S A Z Z Z A A S A A A S S A S A A Z Z Z A S A A A Z A A Z A A S S S S S S S S S S S S S A A S A Z Z Z A Z A ",
"C Z A Z C Z A A S S S A Z Z A A S S S Z Z A A A A Z A A A A A A A A Z Z A Z A C A S S S S S S S S A S S S S S A A A A Z Z A Z Z ",
"V Z Z Z C A A S S S S A Z S S S S S S A Z A A A A A S S S S S S S S A A A Z Z C Z A A A S S A S A S S S S S A S S S S S S A A A ",
"V V C V Z A S S S S S A A A A A S S A A A A S A Z Z S S S S S S A S S A A C B B C Z Z Z S A Z Z A S S S A A Z A A A S S S A A A ",
"V V B C C A A A S S S S A S A S S S A S S S S S S A A S S i S S S S A Z C Z V V V V V Z A A Z A A S S S S S Z A A A S S S Z Z Z ",
"C V B C Z A A A A S S Z A A S A S A A A S S S S S S S S S i i i a A A Z C V V C V B C A A Z Z Z S i S S S A A A S A S S A V V C ",
"Z Z C C Z A A S S a i S Z A A S S A S S S S S S S S S i a s a a i A A C B Z Z Z Z Z Z Z Z A A S i a a i S S A A S S S A C V V C ",
"Z C V V C Z A A S i S S A A S S S A S S S i S S S S S i s a s a S A Z C C C Z Z Z C Z Z Z S S i a i a i S S A Z S S A Z C V C C ",
"Z Z C C A A S A S i S S A S i S S S S S i a i S S i S i i a a a i S Z Z C Z Z A A A A S S S S S i S i i S S A S S S A Z Z C C Z ",
"A Z Z C Z C C Z S S S S S i s i S A A S S i S S S S S S S S S S S A C V V C C Z Z Z Z A A Z S S S S S A S A S S S S A Z Z C C Z ",
"S S A A Z C Z Z S S S S i a a S S A A S S S i a i S S S A A S S A Z C C V Z Z A Z A Z A A S S S S S A S S S S S S S A A Z Z Z A ",
"S S S Z Z Z Z Z S A S S S i i S S C C Z A S S S S A S S S A A A Z Z Z A A Z Z A A C C A S S S S A A A A A S S i S S A A A A S A ",
"S i i S A S S S A S S S S S i S S C C Z A S S S A S S S S A C A A A Z A Z A Z A A Z Z S i a i S S A A Z A S i a S S S S S S A A ",
"i i a i S S A S A A S S i i a S A C V Z A S S A A S S S S A Z A S S A S S A S A Z Z A A S i a S S A Z C Z A S S S S S i i S A S ",
"S S i S S S A A A A A i s i i S C C V A A A A S A S i a i S S A S S i a i S S S Z Z A S A S i S A A Z Z Z A S S S S i s s S S S ",
"S S S S S A A A A Z S i d a a S C B V A Z Z Z A A Z S i S S S A S i i p i S A A Z C Z A A S S S A C Z V Z A S S S S i i i S S S ",
"S S S S S S A S A S S i d d a S Z C C A Z Z Z A A S S S S S S S i a a a i S A S A A S S S S S S A A C C Z S S S A S S A A S S A ",
"S A S Z A A S S S S S S p a s i A V Z Z C Z A Z A S i S S Z A S S a d a S S S Z A S S A S i S S S A C B Z A S A A A Z V Z A S A ",
"A S S A A S S S S S S i d s a S S A A S A S A A A S i S A C Z S i d d s i S S S i a i S i a i S S S Z Z Z S S A A A Z Z A A A A ",
"A A A A S S S S S S S p s a s i a S S S S S S S S i a i A C Z A i s a p S A S S S p p p s a S i S S A Z C S S S S Z Z Z S A A A ",
"Z A Z A S S S A S S i a a s a S i S S S A S S S S i i S C C Z S S i p a i S S S i s d d d s i a i i A A A S A S A A Z Z S A A A ",
"S A Z Z S S S S S S S S S i S S S S S A S A A A S S S Z C V Z A S S S i S A A S i a d a i S S S S i S A S S S A S A A S A Z Z S ",
"A A Z A S A A A A S S S i i S S S S S S A A A A A S S Z V C Z C A S S S S S S S i a a a i S A S i a i S S S A A A S S S A A A S ",
"A Z A A S A Z C A A S S S S S A S A S A S A S A S A S Z V V C V A S S A S A A S S a s i S A Z A S i S S S A Z C A S S S S A S S ",
"A A A Z A A C C Z A S S S S A A S S S S S S A A A A A A C C C C A S A A A A S S i a i S S S S S S S S S S A Z Z Z S S S A S S S ",
"S A C Z A A Z V Z Z S A A A A A A S S S S A Z Z Z A Z A Z V C Z Z A Z Z Z A S S S i S S S S A S S S S A S A Z C Z S S A A S S S ",
"A S Z A A A Z Z Z Z S Z Z A A Z A S S A A Z Z Z C A C A C Z A A Z Z Z Z Z A S S S S S S S S S S S S S S i S Z A S a S A A S S S ",
"S S S A A Z A Z Z V Z C V A Z Z A A Z C Z C A V V V A A Z A S A Z C C Z Z A S S i i S S S S S S S S S S a A Z A S S Z Z A S S S ",
"S S S S S A A A C C C C C A Z A A A Z Z Z Z A C C A S S A A A Z Z A Z Z Z A A S i a i S A S A A A S A S S A A A A S Z A Z S S S ",
"S S S i S S S Z A Z V C A C Z Z A A Z C Z Z Z Z Z A A A S S S A A A A Z C Z A A S S S A A A A A S A Z S Z C Z A A A Z A S S A S ",
"S S S a i a S S A Z C A A Z A A A A Z A A S A S S S A A S S A S S S A S A S A S S A S S A A A A A A A A Z Z Z A A A Z S S S S S ",
"S A S S S S Z Z Z V V Z Z A S S S A S S S S S A A A Z Z S S S S A A S S S S A S S S A Z A Z Z A Z Z Z A A A A A A Z S S S S S Z ",
"S A A S S A A S A V V C C S S S S S i a i S A A A A Z A S S S S A S S S a a S A Z Z A A Z A S S Z Z Z A A S A A A S S S S S A A ",
"S A S Z A A A A A V V V C A S S S S i a a S A A S A A A S S S i S S S S a i A Z A A A A A A S S Z A Z Z A A A A A S S S S S S S ",
"S S S A C Z Z C V B V Z Z A S S S i s s i A A S S S A S i i i a i a i S i S A S A S A A Z A Z A C A A S S A Z A A S S S S S A A ",
"S S A Z Z Z C V C B C Z S A S S S S i i S A A A S S S S a i S i i i S S S A S S S A Z C A A Z A A Z S S S A Z A A A A A S S A S ",
"S i S A A A Z Z C Z Z A S S S S S S S S A A A S i a i S i i S S S S S S A A Z S S S A C A S A S S S S S S A Z A Z Z A S S S S S ",
"S S S Z Z S A Z C Z Z Z S S S S A Z A A Z A Z A a a S S S S S S S A C Z A Z A A Z A Z C S S S A S S S S S A A C C C S S S S S A ",
"A S A A Z Z Z Z Z Z Z A S S S S A S A Z C Z Z S i a i S S S S S S A A A A A A A Z A Z Z Z A S S S i S S S S A A A A S S S S A A ",
"A A S C Z A C Z A A Z A S S S S A A Z V V Z C Z S S S Z A Z S S S A A Z A A Z C Z A Z A S A S S S S S S S S S S S A A A S S A A ",
"A S S Z C Z Z A A Z Z A A S S S A A Z C V Z C A S S A A A A A A S S A S S A S A S a S S S S S S i i S S i a i S S S S A S S Z A ",
"S S A Z C Z A A A Z Z Z A S A A S A Z C C Z Z A S S S A A C A A S S S S S S S S S S S S S S S i a i S i a i S S S S A A S S A Z ",
"S S A Z C Z Z Z Z Z Z Z C A Z A A A C Z Z A S S S A A A C C A S A S i S S S S S S S S S S i S S i a i a i S A S A A A S S S S A ",
"A Z Z Z Z Z Z Z Z Z Z V C Z Z Z A A A A S S A S S A Z Z C V A A S S S A S S S S A Z S S S S S S S i S S S A Z S A A A S S i S A ",
"A A A A A A Z Z Z Z C V C Z Z A A S A S S S S S S S Z Z Z Z A S i S i S S S S S A A S S S S S S S S S S A A C A A A A S i a i S ",
"A A S A A A A A A A Z C B V C A S S S S S A S A S A Z Z Z A S S S S i A Z A S A A A S S S S S S S A S A A A A A S A S S S i S A ",
"A A A A A S S S S A C C V C A A S S S S S S A S A S A A S A A S S S S A Z Z Z Z Z A S S i a i S S A S S S S S S S S S S i a i S ",
"Z Z S A S S S S S Z C C V Z A Z S S S S S S A A A A A A A Z S S S S S A Z C V V Z A S i s i S S S Z A A S S S i S S S S S i S S ",
"Z A S S S S S S S A C Z Z A Z A S S S S S S A A S S S S Z A S S S S A A Z Z V C Z S i a a S S A A A A S i i i a i S S i i a i S ",
"Z A A S S S S S i A A A A Z C C S S S A S S A S S S S S S Z S S S S A A A A Z C A S S i i S S A A Z A S a i S i S S S S S i S S ",
"A S A S S S S S S A A A A Z Z Z A A A A Z S S S S S S S S A A S A S i a i S Z A S S A S i S i S Z A A S i S i a i S S S S S S S ",
"S S S S S S S S S A A Z Z C Z Z A Z A A A S S S S S S A A Z Z A A S S i S S S A A Z A S a i a S A A A Z A S S i S S A A S S A Z "
};
